<svg viewBox="0 0 40 40" fill="none" xmlns="http://www.w3.org/2000/svg">
<path d="M20 35C17.0333 35 14.1332 34.1203 11.6665 32.4721C9.19972 30.8238 7.27713 28.4811 6.14181 25.7403C5.0065 22.9994 4.70945 19.9834 5.28823 17.0737C5.86701 14.1639 7.29562 11.4912 9.3934 9.3934C11.4912 7.29562 14.1639 5.86701 17.0737 5.28823C19.9834 4.70945 22.9994 5.0065 25.7403 6.14181C28.4811 7.27713 30.8238 9.19972 32.4721 11.6665C34.1203 14.1332 35 17.0333 35 20C35 23.9783 33.4197 27.7936 30.6066 30.6066C27.7936 33.4197 23.9783 35 20 35ZM20 7.50001C17.5277 7.50001 15.111 8.23312 13.0554 9.60664C10.9998 10.9802 9.39761 12.9324 8.45151 15.2165C7.50542 17.5005 7.25788 20.0139 7.74019 22.4386C8.22251 24.8634 9.41302 27.0907 11.1612 28.8388C12.9093 30.587 15.1366 31.7775 17.5614 32.2598C19.9861 32.7421 22.4995 32.4946 24.7836 31.5485C27.0676 30.6024 29.0199 29.0002 30.3934 26.9446C31.7669 24.889 32.5 22.4723 32.5 20C32.5 16.6848 31.183 13.5054 28.8388 11.1612C26.4946 8.81697 23.3152 7.50001 20 7.50001Z" fill="white"/>
<path d="M20 21.6667C19.6698 21.6624 19.3544 21.5293 19.1209 21.2958C18.8874 21.0623 18.7543 20.7469 18.75 20.4167V14.5833C18.75 14.2518 18.8817 13.9339 19.1161 13.6995C19.3505 13.465 19.6685 13.3333 20 13.3333C20.3315 13.3333 20.6495 13.465 20.8839 13.6995C21.1183 13.9339 21.25 14.2518 21.25 14.5833V20.4167C21.2457 20.7469 21.1126 21.0623 20.8791 21.2958C20.6456 21.5293 20.3302 21.6624 20 21.6667Z" fill="white"/>
<path d="M20 26.6667C19.6698 26.6624 19.3544 26.5293 19.1209 26.2958C18.8874 26.0623 18.7543 25.7469 18.75 25.4167V24.5833C18.75 24.2518 18.8817 23.9339 19.1161 23.6995C19.3505 23.465 19.6685 23.3333 20 23.3333C20.3315 23.3333 20.6495 23.465 20.8839 23.6995C21.1183 23.9339 21.25 24.2518 21.25 24.5833V25.4167C21.2457 25.7469 21.1126 26.0623 20.8791 26.2958C20.6456 26.5293 20.3302 26.6624 20 26.6667Z" fill="white"/>
</svg>
